<svg preserveAspectRatio="none" overflow="visible" style="display: block;" width="24" height="24" viewBox="0 0 24 24" fill="none" xmlns="http://www.w3.org/2000/svg">
<g id="ChecksIcons">
<path id="Vector" fill-rule="evenodd" clip-rule="evenodd" d="M12 1.25C6.06294 1.25 1.25 6.06294 1.25 12C1.25 17.9371 6.06294 22.75 12 22.75C17.9371 22.75 22.75 17.9371 22.75 12C22.75 6.06294 17.9371 1.25 12 1.25ZM9.70164 8.64124C9.40875 8.34835 8.93388 8.34835 8.64098 8.64124C8.34809 8.93414 8.34809 9.40901 8.64098 9.7019L10.9391 12L8.64098 14.2981C8.34809 14.591 8.34809 15.0659 8.64098 15.3588C8.93388 15.6517 9.40875 15.6517 9.70164 15.3588L11.9997 13.0607L14.2978 15.3588C14.5907 15.6517 15.0656 15.6517 15.3585 15.3588C15.6514 15.0659 15.6514 14.591 15.3585 14.2981L13.0604 12L15.3585 9.7019C15.6514 9.40901 15.6514 8.93414 15.3585 8.64124C15.0656 8.34835 14.5907 8.34835 14.2978 8.64124L11.9997 10.9393L9.70164 8.64124Z" fill="#CA244D"/>
<path id="Vector_2" d="M8.64105 8.64105C8.93395 8.34816 9.40882 8.34816 9.70171 8.64105L11.9998 10.9391L14.2979 8.64105C14.5908 8.34816 15.0657 8.34816 15.3586 8.64105C15.6515 8.93395 15.6515 9.40882 15.3586 9.70171L13.0605 11.9998L15.3586 14.2979C15.6515 14.5908 15.6515 15.0657 15.3586 15.3586C15.0657 15.6515 14.5908 15.6515 14.2979 15.3586L11.9998 13.0605L9.70171 15.3586C9.40882 15.6515 8.93395 15.6515 8.64105 15.3586C8.34816 15.0657 8.34816 14.5908 8.64105 14.2979L10.9392 11.9998L8.64105 9.70171C8.34816 9.40882 8.34816 8.93395 8.64105 8.64105Z" fill="white"/>
</g>
</svg>
