<svg preserveAspectRatio="none" overflow="visible" style="display: block;" width="20" height="20" viewBox="0 0 24 24" fill="none" xmlns="http://www.w3.org/2000/svg">
<g id="ChecksIcons">
<path id="Vector" fill-rule="evenodd" clip-rule="evenodd" d="M12 1.25C6.06294 1.25 1.25 6.06294 1.25 12C1.25 17.9371 6.06294 22.75 12 22.75C17.9371 22.75 22.75 17.9371 22.75 12C22.75 6.06294 17.9371 1.25 12 1.25ZM7.53044 11.9697C7.23755 11.6768 6.76268 11.6768 6.46978 11.9697C6.17689 12.2626 6.17689 12.7374 6.46978 13.0303L9.46978 16.0303C9.76268 16.3232 10.2376 16.3232 10.5304 16.0303L17.5304 9.03033C17.8233 8.73744 17.8233 8.26256 17.5304 7.96967C17.2375 7.67678 16.7627 7.67678 16.4698 7.96967L10.0001 14.4393L7.53044 11.9697Z" fill="#1A7F37"/>
<path id="Vector_2" d="M6.46967 11.9697C6.76257 11.6768 7.23744 11.6768 7.53033 11.9697L9.99999 14.4393L16.4697 7.96967C16.7626 7.67678 17.2374 7.67678 17.5303 7.96967C17.8232 8.26256 17.8232 8.73744 17.5303 9.03033L10.5303 16.0303C10.2375 16.3232 9.76257 16.3232 9.46967 16.0303L6.46967 13.0303C6.17678 12.7374 6.17678 12.2626 6.46967 11.9697Z" fill="white"/>
</g>
</svg>
