<svg width="14" height="14" viewBox="0 0 14 14" fill="none" xmlns="http://www.w3.org/2000/svg">
<g transform="translate(0 1)">
<path fill-rule="evenodd" clip-rule="evenodd" d="M5.60927 2.12436C6.2261 1.05165 7.7738 1.05165 8.39056 2.12436L13.0823 10.2839C13.6973 11.3533 12.9253 12.6877 11.6916 12.6877H2.30821C1.07458 12.6877 0.302619 11.3533 0.917549 10.2839L5.60927 2.12436ZM6.99984 4.81242C7.24145 4.81242 7.43734 5.0083 7.43734 5.24992V7.58325C7.43734 7.82487 7.24145 8.02075 6.99984 8.02075C6.75822 8.02075 6.56234 7.82487 6.56234 7.58325V5.24992C6.56234 5.0083 6.75822 4.81242 6.99984 4.81242ZM7.33088 10.2087C7.49252 10.0291 7.47794 9.75249 7.29833 9.59085C7.11872 9.42921 6.8421 9.44373 6.68046 9.62334L6.67463 9.62982C6.51299 9.80943 6.52757 10.086 6.70718 10.2477C6.88679 10.4093 7.1634 10.3947 7.32505 10.2152L7.33088 10.2087Z" fill="#FFBA18"/>
<path d="M7.2985 9.59085C7.47811 9.75249 7.4927 10.0291 7.33105 10.2087L7.32522 10.2152C7.16358 10.3947 6.88696 10.4093 6.70735 10.2477C6.52775 10.086 6.51316 9.80942 6.6748 9.62981L6.68064 9.62334C6.84228 9.44373 7.1189 9.4292 7.2985 9.59085Z" fill="white"/>
<path d="M7.4375 5.25C7.4375 5.00838 7.24162 4.8125 7 4.8125C6.75838 4.8125 6.5625 5.00838 6.5625 5.25V7.58333C6.5625 7.82495 6.75838 8.02083 7 8.02083C7.24162 8.02083 7.4375 7.82495 7.4375 7.58333V5.25Z" fill="white"/>
</g>
</svg>
